<svg xmlns="http://www.w3.org/2000/svg" viewBox="0 0 340 250" preserveAspectRatio="xMidYMid meet"
    color-interpolation-filters="sRGB">
    <g fill="#FFFFFF">
        <g class="tp-name">
            <rect fill="#FFFFFF" fill-opacity="0" stroke-width="2" x="0" y="0" width="25.599482540267125"
                height="34.760180512542604" class="image-rect"></rect>
            <svg x="0" y="0" width="25.599482540267125" height="34.760180512542604" filtersec="colorsb4636060174"
                class="image-svg-svg primary"><svg xmlns="http://www.w3.org/2000/svg"
                    viewBox="-0.005272185895591974 -1.4179225793498063e-8 89.71527099609375 121.82000732421875">
                    <title>资源 46</title>
                    <path
                        d="M79.29 15.71a10.46 10.46 0 0 1 .08-1.59c-.05.52-.08 1.05-.08 1.59zM15.71 31.42A15.71 15.71 0 0 1 0 15.71v90.55a15.56 15.56 0 0 0 31.12 0V76.69H17.54a15.71 15.71 0 0 1 0-31.42h13.58V31.42z"
                        fill="#00d5ff"></path>
                    <path d="M61.4 76.69a15.71 15.71 0 1 0 0-31.42H31.12v31.42z" fill="#ffd100"></path>
                    <path d="M1.83 61a15.71 15.71 0 0 0 15.71 15.69h13.58V45.27H17.54A15.71 15.71 0 0 0 1.83 61z"
                        fill="#45ae17"></path>
                    <path
                        d="M15.56.15a15.56 15.56 0 0 1 15.56 15.56v15.71H74A15.71 15.71 0 0 0 74 0H15.71A15.71 15.71 0 0 0 .08 14.12 15.56 15.56 0 0 1 15.56.15z"
                        fill="#f0f"></path>
                    <path
                        d="M15.71 31.42h15.41V15.71a15.56 15.56 0 0 0-31-1.59A7 7 0 0 0 0 15.71a15.71 15.71 0 0 0 15.71 15.71z"
                        fill="#2300fd"></path>
                </svg></svg>
            <g transform="translate(29, 2.6853819794734743)">
                <g data-gra="path-name" fill="#FFFFFF" transform="scale(1)">
                    <path
                        d="M11.28-20.39Q15.43-20.39 17.44-18.34Q19.46-16.28 19.46-12.09L19.46-12.09L19.46-2.16Q19.46-1.06 18.81-0.43Q18.15 0.20 17.01 0.20L17.01 0.20Q15.96 0.20 15.28-0.45Q14.61-1.10 14.61-2.16L14.61-2.16L14.61-3.05Q13.92-1.47 12.44-0.57Q10.95 0.33 9.00 0.33L9.00 0.33Q7.00 0.33 5.37-0.49Q3.74-1.30 2.81-2.73Q1.87-4.15 1.87-5.90L1.87-5.90Q1.87-8.10 2.99-9.36Q4.11-10.62 6.64-11.19Q9.16-11.76 13.60-11.76L13.60-11.76L14.61-11.76L14.61-12.70Q14.61-14.69 13.76-15.61Q12.90-16.53 10.99-16.53L10.99-16.53Q9.81-16.53 8.59-16.18Q7.37-15.83 5.70-15.18L5.70-15.18Q4.64-14.65 4.15-14.65L4.15-14.65Q3.42-14.65 2.95-15.18Q2.48-15.71 2.48-16.57L2.48-16.57Q2.48-17.26 2.83-17.77Q3.18-18.28 3.99-18.72L3.99-18.72Q5.41-19.50 7.39-19.95Q9.36-20.39 11.28-20.39L11.28-20.39ZM10.01-3.34Q12.05-3.34 13.33-4.70Q14.61-6.07 14.61-8.22L14.61-8.22L14.61-9.08L13.88-9.08Q11.15-9.08 9.65-8.83Q8.14-8.59 7.49-7.98Q6.84-7.37 6.84-6.31L6.84-6.31Q6.84-5.01 7.75-4.17Q8.67-3.34 10.01-3.34L10.01-3.34Z"
                        transform="translate(-1.8724559023066483, 29.063772048846673)"></path>
                </g>
            </g>
            <g transform="translate(50, 2.6853819794734743)">
                <g data-gra="path-name" fill="#FFFFFF" transform="scale(1)">
                    <path
                        d="M9.85 0.33Q5.41 0.33 2.69-1.42L2.69-1.42Q1.38-2.20 1.38-3.62L1.38-3.62Q1.38-4.44 1.83-4.95Q2.28-5.45 2.93-5.45L2.93-5.45Q3.62-5.45 4.84-4.80L4.84-4.80Q6.15-4.19 7.23-3.87Q8.30-3.54 9.97-3.54L9.97-3.54Q11.68-3.54 12.64-4.11Q13.60-4.68 13.60-5.70L13.60-5.70Q13.60-6.39 13.21-6.80Q12.82-7.20 11.82-7.55Q10.83-7.90 8.79-8.34L8.79-8.34Q5.17-9.08 3.60-10.42Q2.04-11.76 2.04-14.12L2.04-14.12Q2.04-15.92 3.09-17.36Q4.15-18.81 6.00-19.60Q7.86-20.39 10.22-20.39L10.22-20.39Q11.93-20.39 13.51-19.97Q15.10-19.54 16.36-18.72L16.36-18.72Q17.67-17.91 17.67-16.57L17.67-16.57Q17.67-15.75 17.22-15.20Q16.77-14.65 16.12-14.65L16.12-14.65Q15.67-14.65 15.24-14.84Q14.82-15.02 14.17-15.39L14.17-15.39Q12.99-16.00 12.13-16.30Q11.28-16.61 10.01-16.61L10.01-16.61Q8.51-16.61 7.63-16.00Q6.76-15.39 6.76-14.33L6.76-14.33Q6.76-13.31 7.65-12.78Q8.55-12.25 11.11-11.72L11.11-11.72Q13.84-11.15 15.39-10.42Q16.93-9.69 17.61-8.59Q18.28-7.49 18.28-5.78L18.28-5.78Q18.28-3.01 15.98-1.34Q13.68 0.33 9.85 0.33L9.85 0.33Z"
                        transform="translate(-1.383989145183175, 29.063772048846673)"></path>
                </g>
            </g>
            <g transform="translate(70, 2.6853819794734743)">
                <g data-gra="path-name" fill="#FFFFFF" transform="scale(1)">
                    <path
                        d="M12.99-3.54Q15.02-3.42 15.02-1.71L15.02-1.71Q15.02-0.73 14.23-0.22Q13.43 0.28 11.97 0.20L11.97 0.20L10.87 0.12Q4.03-0.37 4.03-7.20L4.03-7.20L4.03-16.08L1.99-16.08Q0.90-16.08 0.31-16.57Q-0.28-17.06-0.28-17.99L-0.28-17.99Q-0.28-18.93 0.31-19.42Q0.90-19.91 1.99-19.91L1.99-19.91L4.03-19.91L4.03-23.65Q4.03-24.75 4.72-25.40Q5.41-26.05 6.59-26.05L6.59-26.05Q7.73-26.05 8.43-25.40Q9.12-24.75 9.12-23.65L9.12-23.65L9.12-19.91L12.58-19.91Q13.68-19.91 14.27-19.42Q14.86-18.93 14.86-17.99L14.86-17.99Q14.86-17.06 14.27-16.57Q13.68-16.08 12.58-16.08L12.58-16.08L9.12-16.08L9.12-6.84Q9.12-3.83 11.89-3.62L11.89-3.62L12.99-3.54Z"
                        transform="translate(0.28493894165535955, 29.063772048846673)"></path>
                </g>
            </g>
            <g transform="translate(89, 2.6853819794734743)">
                <g data-gra="path-name" fill="#FFFFFF" transform="scale(1)">
                    <path
                        d="M4.64-8.87Q3.46-8.87 2.87-9.40Q2.28-9.93 2.28-10.87L2.28-10.87Q2.28-11.80 2.87-12.35Q3.46-12.90 4.64-12.90L4.64-12.90L13.03-12.90Q14.21-12.90 14.80-12.35Q15.39-11.80 15.39-10.87L15.39-10.87Q15.39-9.93 14.80-9.40Q14.21-8.87 13.03-8.87L13.03-8.87L4.64-8.87Z"
                        transform="translate(-2.2795115332428764, 29.063772048846673)"></path>
                </g>
            </g>
            <g transform="translate(106, 2.6853819794734743)">
                <g data-gra="path-name" fill="#FFFFFF" transform="scale(1)">
                    <path
                        d="M23.98-27.56Q24.63-28.94 26.13-28.94L26.13-28.94Q27.15-28.94 27.96-28.29Q28.78-27.64 28.78-26.66L28.78-26.66Q28.78-26.21 28.53-25.64L28.53-25.64L17.26-1.38Q16.89-0.61 16.14-0.18Q15.39 0.24 14.53 0.24L14.53 0.24Q13.68 0.24 12.92-0.18Q12.17-0.61 11.80-1.38L11.80-1.38L0.57-25.64Q0.33-26.21 0.33-26.62L0.33-26.62Q0.33-27.64 1.16-28.29Q1.99-28.94 3.05-28.94L3.05-28.94Q3.74-28.94 4.34-28.60Q4.93-28.25 5.25-27.56L5.25-27.56L14.61-6.76L23.98-27.56Z"
                        transform="translate(-0.3256445047489823, 29.063772048846673)"></path>
                </g>
            </g>
            <g transform="translate(138, 2.6853819794734743)">
                <g data-gra="path-name" fill="#FFFFFF" transform="scale(1)">
                    <path
                        d="M18.36-20.31Q19.54-20.31 20.23-19.66Q20.92-19.01 20.92-17.91L20.92-17.91L20.92-2.12Q20.92-1.06 20.21-0.41Q19.50 0.24 18.36 0.24L18.36 0.24Q17.26 0.24 16.61-0.37Q15.96-0.98 15.96-2.04L15.96-2.04L15.96-3.05Q15.02-1.42 13.43-0.55Q11.85 0.33 9.85 0.33L9.85 0.33Q2.52 0.33 2.52-7.90L2.52-7.90L2.52-17.91Q2.52-19.01 3.22-19.66Q3.91-20.31 5.05-20.31L5.05-20.31Q6.23-20.31 6.92-19.66Q7.61-19.01 7.61-17.91L7.61-17.91L7.61-7.86Q7.61-5.74 8.47-4.72Q9.32-3.70 11.15-3.70L11.15-3.70Q13.27-3.70 14.55-5.11Q15.83-6.51 15.83-8.83L15.83-8.83L15.83-17.91Q15.83-19.01 16.53-19.66Q17.22-20.31 18.36-20.31L18.36-20.31Z"
                        transform="translate(-2.523744911804613, 29.063772048846673)"></path>
                </g>
            </g>
            <g transform="translate(160, 2.6853819794734743)">
                <g data-gra="path-name" fill="#FFFFFF" transform="scale(1)">
                    <path
                        d="M18.40-5.45Q19.09-5.45 19.52-4.93Q19.95-4.40 19.95-3.50L19.95-3.50Q19.95-2.24 18.44-1.38L18.44-1.38Q17.06-0.61 15.31-0.14Q13.55 0.33 11.97 0.33L11.97 0.33Q7.16 0.33 4.36-2.44Q1.55-5.21 1.55-10.01L1.55-10.01Q1.55-13.07 2.77-15.43Q3.99-17.79 6.21-19.09Q8.43-20.39 11.23-20.39L11.23-20.39Q13.92-20.39 15.92-19.21Q17.91-18.03 19.01-15.88Q20.11-13.72 20.11-10.79L20.11-10.79Q20.11-9.04 18.56-9.04L18.56-9.04L6.55-9.04Q6.80-6.23 8.14-4.91Q9.48-3.58 12.05-3.58L12.05-3.58Q13.35-3.58 14.35-3.91Q15.35-4.23 16.61-4.80L16.61-4.80Q17.83-5.45 18.40-5.45L18.40-5.45ZM11.36-16.81Q9.28-16.81 8.04-15.51Q6.80-14.21 6.55-11.76L6.55-11.76L15.75-11.76Q15.67-14.25 14.53-15.53Q13.39-16.81 11.36-16.81L11.36-16.81Z"
                        transform="translate(-1.546811397557666, 29.063772048846673)"></path>
                </g>
            </g>
            <g transform="translate(182, 2.6853819794734743)">
                <g data-gra="path-name" fill="#FFFFFF" transform="scale(1)">
                    <path
                        d="M16.61-14.74Q19.17-14.08 20.54-12.27Q21.90-10.46 21.90-7.77L21.90-7.77Q21.90-4.07 19.17-1.87Q16.45 0.33 11.80 0.33L11.80 0.33Q9.16 0.33 6.72-0.49Q4.27-1.30 2.56-2.77L2.56-2.77Q1.63-3.58 1.63-4.68L1.63-4.68Q1.63-5.58 2.14-6.21Q2.65-6.84 3.34-6.84L3.34-6.84Q3.74-6.84 4.07-6.70Q4.40-6.55 4.97-6.23L4.97-6.23Q6.68-5.09 8.22-4.48Q9.77-3.87 11.60-3.87L11.60-3.87Q14.29-3.87 15.59-4.95Q16.89-6.02 16.89-8.22L16.89-8.22Q16.89-10.38 15.53-11.42Q14.17-12.46 11.32-12.46L11.32-12.46L9.00-12.46Q8.06-12.46 7.55-13.09Q7.04-13.72 7.04-14.53L7.04-14.53Q7.04-15.39 7.55-16.00Q8.06-16.61 9.00-16.61L9.00-16.61L10.62-16.61Q16.20-16.61 16.20-20.80L16.20-20.80Q16.20-22.75 15.02-23.81Q13.84-24.87 11.76-24.87L11.76-24.87Q8.79-24.87 5.41-22.51L5.41-22.51Q4.84-22.18 4.52-22.04Q4.19-21.90 3.79-21.90L3.79-21.90Q3.09-21.90 2.58-22.53Q2.08-23.16 2.08-24.06L2.08-24.06Q2.08-24.67 2.30-25.09Q2.52-25.52 3.01-25.97L3.01-25.97Q4.72-27.39 7.10-28.23Q9.48-29.06 11.97-29.06L11.97-29.06Q16.20-29.06 18.70-26.99Q21.21-24.91 21.21-21.45L21.21-21.45Q21.17-19.09 19.97-17.32Q18.77-15.55 16.61-14.74L16.61-14.74Z"
                        transform="translate(-1.6282225237449115, 29.063772048846673)"></path>
                </g>
            </g>
        </g>
        <!---->
    </g>
</svg>