<svg xmlns="http://www.w3.org/2000/svg" xmlns:xlink="http://www.w3.org/1999/xlink" viewBox="0 0 479 285" class="design-iconfont">
  <defs>
    <path id="pv1wlsps5a" d="M30.0000012 0A30.0000012 30.0000012 0 1 0 30.0000012 60.0000024A30.0000012 30.0000012 0 1 0 30.0000012 0Z"/>
    <path id="cln61id2xc" d="M0 10L107 10 107 0 0 0z"/>
  </defs>
  <g fill="none" fill-rule="evenodd">
    <path fill="#0050F0" d="M0 -2.6454533e-17L341 0 341 244 0 244z" transform="translate(85)"/>
    <path fill="#FFF" d="M0 0H73V76H0z" transform="translate(140 39)"/>
    <path fill="#00D2FA" d="M6 52H67V70H6z" transform="translate(140 39)"/>
    <path d="M6,0.4 C9.0927946,0.4 11.6,2.9072054 11.6,6 C11.6,9.0927946 9.0927946,11.6 6,11.6 C2.9072054,11.6 0.4,9.0927946 0.4,6 C0.4,2.9072054 2.9072054,0.4 6,0.4 Z M8.54838049,3.57744612 L5.6318,6.8897 L3.7055065,4.8789932 L2.6944935,5.84742115 L5.67541296,8.95942171 L9.5991781,4.50255388 L8.54838049,3.57744612 Z" transform="translate(149 94)" fill="#FFF" fill-rule="nonzero"/>
    <text font-family="DINAlternate-Bold, DIN Alternate" font-size="10" font-weight="bold" fill="#111" transform="translate(140 39)">
      <tspan x="6.19999766" y="15.3999989">12</tspan>
    </text>
    <path fill="#FFF" d="M215 149H224V202H215z" transform="translate(85)"/>
    <path fill="#00F0DC" d="M231 130H240V202H231z" transform="translate(85)"/>
    <path fill="#FFF" d="M247 174H256V202H247z" transform="translate(85)"/>
    <path fill="#00D2FA" d="M263 161H272V202H263z" transform="translate(85)"/>
    <path fill="#FFF" d="M128 174H179V178H128z" transform="translate(85)"/>
    <path fill="#FFF" d="M128 158H179V162H128z" transform="translate(85)"/>
    <path fill="#FFF" d="M128 190H179V194H128z" transform="translate(85)"/>
    <g transform="translate(140 147)">
      <mask id="df62zkqa3b" fill="#fff">
        <use xlink:href="#pv1wlsps5a"/>
      </mask>
      <use fill="#FFF" xlink:href="#pv1wlsps5a"/>
      <path stroke="#003FFF" stroke-width="2.4000001" mask="url(#df62zkqa3b)" d="M30.0000012 30.0000012L30.0000012 -9.60000038 71.1003858 7.68531325 60.0000024 44.4000018z"/>
    </g>
    <g fill="#FFF">
      <g transform="translate(264 40)">
        <use xlink:href="#cln61id2xc"/>
        <use xlink:href="#cln61id2xc"/>
      </g>
      <path d="M0 32L107 32 107 22 0 22z" transform="translate(264 40)"/>
      <path d="M0 54L85 54 85 44 0 44z" transform="translate(264 40)"/>
      <path d="M6.72000027,0 C10.4313539,0 13.4400005,3.0086466 13.4400005,6.72000027 C13.4400005,10.4313539 10.4313539,13.4400005 6.72000027,13.4400005 C3.0086466,13.4400005 0,10.4313539 0,6.72000027 C0,3.0086466 3.0086466,0 6.72000027,0 Z M9.77805698,3.81293549 L6.27816025,7.78764031 L3.96660796,5.37479205 L2.75339231,6.53690564 L6.33049581,10.2713065 L11.0390142,4.92306486 L9.77805698,3.81293549 Z" transform="translate(264 101)" fill-rule="nonzero"/>
    </g>
    <g>
      <path fill="#00F0DC" d="M0 53H97V79H0z" transform="translate(341 206)"/>
      <path fill="#00D2FA" d="M20 27H117V53H20z" transform="translate(341 206)"/>
      <path fill="#0050F0" d="M41 1H138V27H41z" transform="translate(341 206)"/>
      <path stroke="#FFF" stroke-width="2" d="M85 0L40.1603053 0 40.1603053 26.3466667 19 26.3466667 19 38" transform="translate(341 206)"/>
    </g>
    <path fill="#0050F0" d="M0 177H54V231H0z"/>
    <path fill="#00D2FA" d="M54 231H108V285H54z"/>
    <path fill="#00F0DC" d="M108 231H162V285H108z"/>
    <path stroke="#FFF" stroke-width="2" d="M163 244L163 230 85 230"/>
  </g>
</svg>
